<?xml version="1.0" encoding="utf-8"?>
<!-- Generator: Adobe Illustrator 27.9.2, SVG Export Plug-In . SVG Version: 6.00 Build 0)  -->
<svg version="1.1"
	 id="svg2" xmlns:dc="http://purl.org/dc/elements/1.1/" xmlns:inkscape="http://www.inkscape.org/namespaces/inkscape" xmlns:sodipodi="http://sodipodi.sourceforge.net/DTD/sodipodi-0.dtd" xmlns:svg="http://www.w3.org/2000/svg" xmlns:rdf="http://www.w3.org/1999/02/22-rdf-syntax-ns#" xmlns:cc="http://creativecommons.org/ns#" sodipodi:docname="pyeql-logo.svg"
	 xmlns="http://www.w3.org/2000/svg" xmlns:xlink="http://www.w3.org/1999/xlink" x="0px" y="0px" viewBox="0 0 247.6 74.6"
	 style="enable-background:new 0 0 247.6 74.6;" xml:space="preserve">
<style type="text/css">
	.st0{fill:none;}
	.st1{font-family:'Montserrat-Medium';}
	.st2{font-size:48px;}
	.st3{letter-spacing:8.2;}

		.st4{fill-rule:evenodd;clip-rule:evenodd;fill:none;stroke:url(#path4233_00000039130232046384266950000000371957784420070830_);stroke-width:5.5;}

		.st5{fill-rule:evenodd;clip-rule:evenodd;fill:none;stroke:url(#path4233_00000023265276881989503600000009292517329041267633_);stroke-width:5.5;}
	.st6{font-family:'Montserrat-Regular';}
	.st7{font-size:54.9506px;}
	.st8{letter-spacing:-3.1;}
	.st9{font-size:67px;}
	.st10{letter-spacing:-4.1;}
	.st11{fill-rule:evenodd;clip-rule:evenodd;fill:#FF0000;stroke:url(#SVGID_1_);stroke-width:5.5;}

		.st12{fill-rule:evenodd;clip-rule:evenodd;fill:#FF0000;stroke:url(#SVGID_00000064356292760447381890000011767842062525402508_);stroke-width:5.5;}

		.st13{fill-rule:evenodd;clip-rule:evenodd;fill:#FF0000;stroke:url(#SVGID_00000029729584777521183020000006604488518981484437_);stroke-width:5.5;}
	.st14{fill:url(#SVGID_00000040574330377382832920000007733573925368898237_);}
	.st15{fill:url(#SVGID_00000084493688463477941270000013967980937098775169_);}
	.st16{fill:url(#SVGID_00000057843298645572530500000007652965328547135127_);}
	.st17{fill:url(#SVGID_00000041259659057712698930000017929706508077979060_);}
	.st18{fill:url(#SVGID_00000137851682351066083580000004755368416174158220_);}
	.st19{fill:url(#SVGID_00000078046074370769677670000003554349957197022898_);}
</style>
<rect x="17.7" y="14.5" class="st0" width="27.3" height="41"/>
<text transform="matrix(0.9779 0 0 1 17.6833 55.2913)" class="st1 st2 st3">+</text>
<sodipodi:namedview  bordercolor="#666666" borderopacity="1.0" fit-margin-bottom="0" fit-margin-left="0" fit-margin-right="0" fit-margin-top="0" id="base" inkscape:current-layer="layer1" inkscape:cx="159.11201" inkscape:cy="11.534714" inkscape:document-units="px" inkscape:pageopacity="0.0" inkscape:pageshadow="2" inkscape:window-height="1139" inkscape:window-maximized="1" inkscape:window-width="1920" inkscape:window-x="0" inkscape:window-y="32" inkscape:zoom="2.2175476" pagecolor="#ffffff" showgrid="false" units="in">
	</sodipodi:namedview>
<linearGradient id="path4233_00000037688352672436070070000014015992277568898469_" gradientUnits="userSpaceOnUse" x1="-1009.1229" y1="-3428.7441" x2="-1009.1229" y2="-3428.7441" gradientTransform="matrix(-0.1674 0.2214 -0.2165 -0.1712 -881.3062 -340.758)">
	<stop  offset="0" style="stop-color:#FF0000"/>
	<stop  offset="1" style="stop-color:#2ED7FF;stop-opacity:0.4778"/>
</linearGradient>
<path id="path4233_00000057866424732738927920000001957336754603236738_" inkscape:connector-curvature="0" style="fill-rule:evenodd;clip-rule:evenodd;fill:none;stroke:url(#path4233_00000037688352672436070070000014015992277568898469_);stroke-width:5.5;" d="
	M30,22.8"/>
<linearGradient id="path4233_00000149347226453534243470000010101859622529013660_" gradientUnits="userSpaceOnUse" x1="-1037.6863" y1="-3406.6572" x2="-1037.6863" y2="-3406.6572" gradientTransform="matrix(-0.1674 0.2214 -0.2165 -0.1712 -881.3062 -340.758)">
	<stop  offset="0" style="stop-color:#FF0000"/>
	<stop  offset="1" style="stop-color:#2ED7FF;stop-opacity:0.4778"/>
</linearGradient>
<path id="path4233_00000157281237730629437260000002745410050754316988_" inkscape:connector-curvature="0" style="fill-rule:evenodd;clip-rule:evenodd;fill:none;stroke:url(#path4233_00000149347226453534243470000010101859622529013660_);stroke-width:5.5;" d="
	M30,12.7"/>
<text transform="matrix(0.9779 0 0 1 62.2901 56.4609)" class="st6 st7 st8">py</text>
<text transform="matrix(0.9779 0 0 1 120.2554 56.9492)" class="st1 st9 st10">EQL</text>
<linearGradient id="SVGID_1_" gradientUnits="userSpaceOnUse" x1="30.0485" y1="17.4668" x2="30.0485" y2="17.4668">
	<stop  offset="0" style="stop-color:#FF0000"/>
	<stop  offset="1" style="stop-color:#2ED7FF;stop-opacity:0.4778"/>
</linearGradient>
<path class="st11" d="M30,17.5"/>
<linearGradient id="SVGID_00000016784325933556202170000006798642871131071917_" gradientUnits="userSpaceOnUse" x1="30.0485" y1="22.1586" x2="30.0485" y2="22.1586">
	<stop  offset="0" style="stop-color:#FF0000"/>
	<stop  offset="1" style="stop-color:#2ED7FF;stop-opacity:0.4778"/>
</linearGradient>
<path style="fill-rule:evenodd;clip-rule:evenodd;fill:#FF0000;stroke:url(#SVGID_00000016784325933556202170000006798642871131071917_);stroke-width:5.5;" d="
	M30,22.2"/>
<linearGradient id="SVGID_00000031170377433628644610000001418026020093463688_" gradientUnits="userSpaceOnUse" x1="30.0485" y1="22.6842" x2="30.0485" y2="22.6842">
	<stop  offset="0" style="stop-color:#FF0000"/>
	<stop  offset="1" style="stop-color:#2ED7FF;stop-opacity:0.4778"/>
</linearGradient>
<path style="fill-rule:evenodd;clip-rule:evenodd;fill:#FF0000;stroke:url(#SVGID_00000031170377433628644610000001418026020093463688_);stroke-width:5.5;" d="
	M30,22.7"/>
<g>
	<g id="_x3C_Radial_Repeat_x3E__00000171706961728154500680000014289320848500559014_">

			<linearGradient id="SVGID_00000017486689607274662520000016029250206009649317_" gradientUnits="userSpaceOnUse" x1="31.8158" y1="23.2966" x2="30.9894" y2="8.349" gradientTransform="matrix(-1 -1.540653e-03 1.540653e-03 -1 61.6577 76.9837)">
			<stop  offset="0" style="stop-color:#FF0000"/>
			<stop  offset="1" style="stop-color:#2ED7FF;stop-opacity:0.4778"/>
		</linearGradient>
		<path style="fill:url(#SVGID_00000017486689607274662520000016029250206009649317_);" d="M30.2,54c0.7,0,1.4,0.2,2,0.6L42,62
			c1.5,1.1,1.8,3.1,0.7,4.6s-3.2,1.7-4.6,0.7l-7.9-5.8l-7.3,5.7c-1.4,1.1-3.5,0.9-4.6-0.5c-1.1-1.4-0.9-3.5,0.5-4.6l9.3-7.2
			C28.7,54.3,29.4,54,30.2,54z"/>
	</g>
	<g id="_x3C_Radial_Repeat_x3E__00000047057945875962440930000009212643946315802557_">

			<linearGradient id="SVGID_00000016067721903173370270000008702740294746841226_" gradientUnits="userSpaceOnUse" x1="31.8159" y1="23.2966" x2="30.9894" y2="8.349" gradientTransform="matrix(-0.4987 -0.8668 0.8668 -0.4987 12.9032 84.3989)">
			<stop  offset="0" style="stop-color:#FF0000"/>
			<stop  offset="1" style="stop-color:#2ED7FF;stop-opacity:0.4778"/>
		</linearGradient>
		<path style="fill:url(#SVGID_00000016067721903173370270000008702740294746841226_);" d="M17,45.6c0.3,0.6,0.5,1.3,0.4,2
			l-1.3,12.2c-0.2,1.8-1.8,3.1-3.6,2.9s-3.1-1.9-2.9-3.7l1.1-9.7l-8.6-3.5c-1.7-0.7-2.5-2.6-1.9-4.3c0.7-1.7,2.6-2.5,4.2-1.8
			l10.9,4.4C16.1,44.5,16.7,45,17,45.6z"/>
	</g>
	<g id="_x3C_Radial_Repeat_x3E__00000121253429442138185250000006671932471601853091_">

			<linearGradient id="SVGID_00000129897348690848594720000016949082739869928623_" gradientUnits="userSpaceOnUse" x1="31.8159" y1="23.2966" x2="30.9894" y2="8.349" gradientTransform="matrix(0.5013 -0.8653 0.8653 0.5013 -17.8964 45.8831)">
			<stop  offset="0" style="stop-color:#FF0000"/>
			<stop  offset="1" style="stop-color:#2ED7FF;stop-opacity:0.4778"/>
		</linearGradient>
		<path style="fill:url(#SVGID_00000129897348690848594720000016949082739869928623_);" d="M17.7,30.1c-0.3,0.6-0.9,1.1-1.5,1.4
			l-11.3,5c-1.7,0.7-3.6,0-4.3-1.7s0.1-3.6,1.7-4.3l9-3.9L10,17.3c-0.3-1.8,1-3.5,2.8-3.8c1.8-0.3,3.4,1,3.7,2.8l1.6,11.7
			C18.3,28.7,18.1,29.5,17.7,30.1z"/>
	</g>
	<g id="_x3C_Radial_Repeat_x3E__00000018205795398005060100000006486708145515902639_">

			<linearGradient id="SVGID_00000111175083240068436940000000284061807332469161_" gradientUnits="userSpaceOnUse" x1="31.8158" y1="23.2966" x2="30.9894" y2="8.349" gradientTransform="matrix(1 1.540653e-03 -1.540653e-03 1 5.927012e-02 -4.762253e-02)">
			<stop  offset="0" style="stop-color:#FF0000"/>
			<stop  offset="1" style="stop-color:#2ED7FF;stop-opacity:0.4778"/>
		</linearGradient>
		<path style="fill:url(#SVGID_00000111175083240068436940000000284061807332469161_);" d="M31.6,22.9c-0.7,0-1.4-0.2-2-0.6L19.7,15
			c-1.5-1.1-1.8-3.1-0.7-4.6s3.2-1.7,4.6-0.7l7.9,5.8l7.3-5.7c1.4-1.1,3.5-0.9,4.6,0.5c1.1,1.4,0.9,3.5-0.5,4.6l-9.3,7.2
			C33,22.7,32.3,22.9,31.6,22.9z"/>
	</g>
	<g id="_x3C_Radial_Repeat_x3E__00000053534986526812234640000002265808596529675938_">

			<linearGradient id="SVGID_00000043440226723866068820000017334696161045590169_" gradientUnits="userSpaceOnUse" x1="31.8159" y1="23.2966" x2="30.9894" y2="8.349" gradientTransform="matrix(0.4987 0.8668 -0.8668 0.4987 48.8137 -7.4629)">
			<stop  offset="0" style="stop-color:#FF0000"/>
			<stop  offset="1" style="stop-color:#2ED7FF;stop-opacity:0.4778"/>
		</linearGradient>
		<path style="fill:url(#SVGID_00000043440226723866068820000017334696161045590169_);" d="M44.7,31.3c-0.3-0.6-0.5-1.3-0.4-2
			L45.6,17c0.2-1.8,1.8-3.1,3.6-2.9c1.8,0.2,3.1,1.9,2.9,3.7L51,27.6l8.6,3.5c1.7,0.7,2.5,2.6,1.9,4.3c-0.7,1.7-2.6,2.5-4.2,1.8
			l-10.9-4.4C45.6,32.4,45.1,31.9,44.7,31.3z"/>
	</g>
	<g id="_x3C_Radial_Repeat_x3E__00000010300782756303198070000002419792275675066522_">

			<linearGradient id="SVGID_00000067198161089259880220000003177671422401770624_" gradientUnits="userSpaceOnUse" x1="31.8159" y1="23.2966" x2="30.9894" y2="8.349" gradientTransform="matrix(-0.5013 0.8653 -0.8653 -0.5013 79.6136 31.0524)">
			<stop  offset="0" style="stop-color:#FF0000"/>
			<stop  offset="1" style="stop-color:#2ED7FF;stop-opacity:0.4778"/>
		</linearGradient>
		<path style="fill:url(#SVGID_00000067198161089259880220000003177671422401770624_);" d="M44,46.9c0.3-0.6,0.9-1.1,1.5-1.4l11.3-5
			c1.7-0.7,3.6,0,4.3,1.7s-0.1,3.6-1.7,4.3l-9,3.9l1.3,9.2c0.3,1.8-1,3.5-2.8,3.8c-1.8,0.3-3.4-1-3.7-2.8L43.6,49
			C43.5,48.2,43.6,47.5,44,46.9z"/>
	</g>
</g>
</svg>
